<?xml version="1.0" encoding="UTF-8" standalone="no"?>
<!-- Created with Inkscape (http://www.inkscape.org/) -->

<svg
   xmlns:dc="http://purl.org/dc/elements/1.1/"
   xmlns:cc="http://creativecommons.org/ns#"
   xmlns:rdf="http://www.w3.org/1999/02/22-rdf-syntax-ns#"
   xmlns:svg="http://www.w3.org/2000/svg"
   xmlns="http://www.w3.org/2000/svg"
   xmlns:xlink="http://www.w3.org/1999/xlink"
   xmlns:sodipodi="http://sodipodi.sourceforge.net/DTD/sodipodi-0.dtd"
   xmlns:inkscape="http://www.inkscape.org/namespaces/inkscape"
   width="144"
   height="144"
   viewBox="0 0 144 144"
   version="1.1"
   id="svg8"
   inkscape:export-filename="/home/vitor/dev/projeto-hubble/assets/bg_sol.png"
   inkscape:export-xdpi="800"
   inkscape:export-ydpi="800"
   inkscape:version="0.92.4 5da689c313, 2019-01-14"
   sodipodi:docname="bg_sol.svg">
  <defs
     id="defs2">
    <inkscape:path-effect
       effect="spiro"
       id="path-effect3313"
       is_visible="true" />
    <inkscape:path-effect
       effect="spiro"
       id="path-effect3196"
       is_visible="true" />
    <inkscape:path-effect
       is_visible="true"
       id="path-effect3192"
       effect="spiro" />
    <inkscape:path-effect
       effect="spiro"
       id="path-effect3188"
       is_visible="true" />
    <inkscape:path-effect
       is_visible="true"
       id="path-effect3184"
       effect="spiro" />
    <inkscape:path-effect
       effect="spiro"
       id="path-effect3180"
       is_visible="true" />
    <inkscape:path-effect
       is_visible="true"
       id="path-effect3176"
       effect="spiro" />
    <inkscape:path-effect
       effect="spiro"
       id="path-effect3172"
       is_visible="true" />
    <inkscape:path-effect
       is_visible="true"
       id="path-effect3168"
       effect="spiro" />
    <inkscape:path-effect
       effect="spiro"
       id="path-effect3164"
       is_visible="true" />
    <inkscape:path-effect
       effect="spiro"
       id="path-effect1248"
       is_visible="true" />
    <inkscape:path-effect
       is_visible="true"
       id="path-effect1244"
       effect="spiro" />
    <inkscape:path-effect
       effect="spiro"
       id="path-effect1240"
       is_visible="true" />
    <inkscape:path-effect
       is_visible="true"
       id="path-effect1236"
       effect="spiro" />
    <inkscape:path-effect
       effect="spiro"
       id="path-effect1232"
       is_visible="true" />
    <inkscape:path-effect
       is_visible="true"
       id="path-effect1228"
       effect="spiro" />
    <inkscape:path-effect
       effect="spiro"
       id="path-effect1224"
       is_visible="true" />
    <inkscape:path-effect
       is_visible="true"
       id="path-effect1220"
       effect="spiro" />
    <inkscape:path-effect
       effect="spiro"
       id="path-effect1216"
       is_visible="true" />
    <inkscape:path-effect
       effect="spiro"
       id="path-effect1212"
       is_visible="true" />
    <inkscape:path-effect
       effect="spiro"
       id="path-effect1208"
       is_visible="true" />
    <inkscape:path-effect
       effect="spiro"
       id="path-effect1204"
       is_visible="true" />
    <filter
       inkscape:label="Roughen Inside"
       inkscape:menu="Distort"
       inkscape:menu-tooltip="Roughen all inside shapes"
       style="color-interpolation-filters:sRGB"
       id="filter3307">
      <feTurbulence
         numOctaves="5"
         seed="0"
         type="fractalNoise"
         baseFrequency="0.08"
         id="feTurbulence3299" />
      <feGaussianBlur
         stdDeviation="0.5"
         result="result91"
         id="feGaussianBlur3301" />
      <feDisplacementMap
         scale="20"
         yChannelSelector="G"
         xChannelSelector="R"
         in="SourceGraphic"
         result="result1"
         in2="result91"
         id="feDisplacementMap3303" />
      <feComposite
         in="result1"
         in2="SourceGraphic"
         operator="atop"
         id="feComposite3305" />
    </filter>
    <filter
       inkscape:label="Chalk and Sponge"
       inkscape:menu="Distort"
       inkscape:menu-tooltip="Low turbulence gives sponge look and high turbulence chalk"
       width="1.6"
       height="2"
       y="-0.5"
       x="-0.3"
       style="color-interpolation-filters:sRGB;"
       id="filter6228">
      <feTurbulence
         baseFrequency="0.4"
         type="fractalNoise"
         seed="0"
         numOctaves="5"
         result="result1"
         id="feTurbulence6224" />
      <feDisplacementMap
         xChannelSelector="R"
         yChannelSelector="G"
         scale="30"
         in="SourceGraphic"
         in2="result1"
         id="feDisplacementMap6226" />
    </filter>
    <filter
       inkscape:label="Chalk and Sponge"
       inkscape:menu="Distort"
       inkscape:menu-tooltip="Low turbulence gives sponge look and high turbulence chalk"
       width="1.6"
       height="2"
       y="-0.5"
       x="-0.3"
       style="color-interpolation-filters:sRGB;"
       id="filter6236">
      <feTurbulence
         baseFrequency="0.4"
         type="fractalNoise"
         seed="0"
         numOctaves="5"
         result="result1"
         id="feTurbulence6232" />
      <feDisplacementMap
         xChannelSelector="R"
         yChannelSelector="G"
         scale="30"
         in="SourceGraphic"
         in2="result1"
         id="feDisplacementMap6234" />
    </filter>
    <filter
       inkscape:collect="always"
       style="color-interpolation-filters:sRGB"
       id="filter6298"
       x="-0.19200001"
       width="1.384"
       y="-0.19200001"
       height="1.384">
      <feGaussianBlur
         inkscape:collect="always"
         stdDeviation="3.6013561"
         id="feGaussianBlur6300" />
    </filter>
  </defs>
  <sodipodi:namedview
     id="base"
     pagecolor="#ffffff"
     bordercolor="#666666"
     borderopacity="1.0"
     inkscape:pageopacity="0.0"
     inkscape:pageshadow="2"
     inkscape:zoom="1.84375"
     inkscape:cx="51.826111"
     inkscape:cy="64.746861"
     inkscape:document-units="px"
     inkscape:current-layer="layer1"
     showgrid="false"
     units="px"
     inkscape:snap-global="true"
     inkscape:window-width="1366"
     inkscape:window-height="705"
     inkscape:window-x="0"
     inkscape:window-y="30"
     inkscape:window-maximized="1"
     inkscape:snap-page="true">
    <inkscape:grid
       type="xygrid"
       id="grid815"
       empspacing="4"
       originx="-3.0517578e-05"
       originy="6.1035156e-06" />
  </sodipodi:namedview>
  <metadata
     id="metadata5">
    <rdf:RDF>
      <cc:Work
         rdf:about="">
        <dc:format>image/svg+xml</dc:format>
        <dc:type
           rdf:resource="http://purl.org/dc/dcmitype/StillImage" />
        <dc:title></dc:title>
      </cc:Work>
    </rdf:RDF>
  </metadata>
  <g
     inkscape:label="Camada 1"
     inkscape:groupmode="layer"
     id="layer1"
     transform="translate(-3.0517578e-5,-223.60001)">
    <rect
       style="opacity:1;fill:#000105;fill-opacity:1;stroke:none;stroke-width:0.25;stroke-linecap:round;stroke-linejoin:round;stroke-miterlimit:4;stroke-dasharray:none;stroke-opacity:0.99607843"
       id="rect3309"
       width="144"
       height="144"
       x="3.0517578e-05"
       y="223.60001" />
    <circle
       style="opacity:1;fill:#ffffff;fill-opacity:0.5;stroke:none;stroke-width:0.83368415;stroke-linecap:round;stroke-linejoin:round;stroke-miterlimit:4;stroke-dasharray:none;stroke-opacity:0.99607843"
       id="path6012"
       cx="0.7924034"
       cy="224.6212"
       r="0.26847455" />
    <use
       id="use6014"
       inkscape:spray-origin="#path6012"
       xlink:href="#path6012"
       x="0"
       y="0"
       width="100%"
       height="100%"
       transform="matrix(0.64,0,0,0.64,125.69805,118.03403)" />
    <use
       id="use6016"
       inkscape:spray-origin="#path6012"
       xlink:href="#path6012"
       x="0"
       y="0"
       width="100%"
       height="100%"
       transform="matrix(0.64,0,0,0.64,87.8272,143.6158)" />
    <use
       id="use6018"
       inkscape:spray-origin="#path6012"
       xlink:href="#path6012"
       x="0"
       y="0"
       width="100%"
       height="100%"
       transform="matrix(0.64,0,0,0.64,27.743627,122.05379)" />
    <use
       id="use6020"
       inkscape:spray-origin="#path6012"
       xlink:href="#path6012"
       x="0"
       y="0"
       width="100%"
       height="100%"
       transform="matrix(0.64,0,0,0.64,39.509907,180.26168)" />
    <use
       id="use6022"
       inkscape:spray-origin="#path6012"
       xlink:href="#path6012"
       x="0"
       y="0"
       width="100%"
       height="100%"
       transform="matrix(0.64,0,0,0.64,72.645063,161.98477)" />
    <use
       id="use6024"
       inkscape:spray-origin="#path6012"
       xlink:href="#path6012"
       x="0"
       y="0"
       width="100%"
       height="100%"
       transform="matrix(0.64,0,0,0.64,108.07757,229.88643)" />
    <use
       id="use6026"
       inkscape:spray-origin="#path6012"
       xlink:href="#path6012"
       x="0"
       y="0"
       width="100%"
       height="100%"
       transform="matrix(0.64,0,0,0.64,95.247639,176.94685)" />
    <use
       id="use6028"
       inkscape:spray-origin="#path6012"
       xlink:href="#path6012"
       x="0"
       y="0"
       width="100%"
       height="100%"
       transform="matrix(0.64,0,0,0.64,87.215763,155.64727)" />
    <use
       id="use6030"
       inkscape:spray-origin="#path6012"
       xlink:href="#path6012"
       x="0"
       y="0"
       width="100%"
       height="100%"
       transform="matrix(0.64,0,0,0.64,65.016931,211.74245)" />
    <use
       id="use6032"
       inkscape:spray-origin="#path6012"
       xlink:href="#path6012"
       x="0"
       y="0"
       width="100%"
       height="100%"
       transform="matrix(0.64,0,0,0.64,-24.886511,173.93793)" />
    <use
       id="use6034"
       inkscape:spray-origin="#path6012"
       xlink:href="#path6012"
       x="0"
       y="0"
       width="100%"
       height="100%"
       transform="matrix(0.64,0,0,0.64,-4.2814741,215.08285)" />
    <use
       id="use6036"
       inkscape:spray-origin="#path6012"
       xlink:href="#path6012"
       x="0"
       y="0"
       width="100%"
       height="100%"
       transform="matrix(0.64,0,0,0.64,26.043569,164.17162)" />
    <use
       id="use6038"
       inkscape:spray-origin="#path6012"
       xlink:href="#path6012"
       x="0"
       y="0"
       width="100%"
       height="100%"
       transform="matrix(0.64,0,0,0.64,5.0231528,167.36367)" />
    <use
       id="use6040"
       inkscape:spray-origin="#path6012"
       xlink:href="#path6012"
       x="0"
       y="0"
       width="100%"
       height="100%"
       transform="matrix(0.64,0,0,0.64,4.4265559,133.75734)" />
    <use
       id="use6042"
       inkscape:spray-origin="#path6012"
       xlink:href="#path6012"
       x="0"
       y="0"
       width="100%"
       height="100%"
       transform="matrix(0.64,0,0,0.64,35.610821,114.06508)" />
    <use
       id="use6044"
       inkscape:spray-origin="#path6012"
       xlink:href="#path6012"
       x="0"
       y="0"
       width="100%"
       height="100%"
       transform="matrix(0.64,0,0,0.64,36.947545,148.82583)" />
    <use
       id="use6046"
       inkscape:spray-origin="#path6012"
       xlink:href="#path6012"
       x="0"
       y="0"
       width="100%"
       height="100%"
       transform="matrix(0.64,0,0,0.64,19.301478,111.92869)" />
    <use
       id="use6048"
       inkscape:spray-origin="#path6012"
       xlink:href="#path6012"
       x="0"
       y="0"
       width="100%"
       height="100%"
       transform="matrix(0.64,0,0,0.64,64.919305,113.64633)" />
    <use
       id="use6050"
       inkscape:spray-origin="#path6012"
       xlink:href="#path6012"
       x="0"
       y="0"
       width="100%"
       height="100%"
       transform="matrix(0.64,0,0,0.64,81.230541,119.94664)" />
    <use
       id="use6052"
       inkscape:spray-origin="#path6012"
       xlink:href="#path6012"
       x="0"
       y="0"
       width="100%"
       height="100%"
       transform="matrix(0.64,0,0,0.64,85.013452,98.666477)" />
    <use
       id="use6054"
       inkscape:spray-origin="#path6012"
       xlink:href="#path6012"
       x="0"
       y="0"
       width="100%"
       height="100%"
       transform="matrix(0.64,0,0,0.64,101.67221,94.630695)" />
    <use
       id="use6056"
       inkscape:spray-origin="#path6012"
       xlink:href="#path6012"
       x="0"
       y="0"
       width="100%"
       height="100%"
       transform="matrix(0.64,0,0,0.64,125.42981,94.293346)" />
    <use
       id="use6058"
       inkscape:spray-origin="#path6012"
       xlink:href="#path6012"
       x="0"
       y="0"
       width="100%"
       height="100%"
       transform="matrix(0.64,0,0,0.64,126.84313,117.905)" />
    <use
       id="use6060"
       inkscape:spray-origin="#path6012"
       xlink:href="#path6012"
       x="0"
       y="0"
       width="100%"
       height="100%"
       transform="matrix(0.64,0,0,0.64,120.14494,116.40787)" />
    <use
       id="use6062"
       inkscape:spray-origin="#path6012"
       xlink:href="#path6012"
       x="0"
       y="0"
       width="100%"
       height="100%"
       transform="matrix(0.64,0,0,0.64,170.07083,159.51488)" />
    <use
       id="use6064"
       inkscape:spray-origin="#path6012"
       xlink:href="#path6012"
       x="0"
       y="0"
       width="100%"
       height="100%"
       transform="matrix(0.64,0,0,0.64,113.259,168.29275)" />
    <use
       id="use6066"
       inkscape:spray-origin="#path6012"
       xlink:href="#path6012"
       x="0"
       y="0"
       width="100%"
       height="100%"
       transform="matrix(0.64,0,0,0.64,160.52067,160.3471)" />
    <use
       id="use6068"
       inkscape:spray-origin="#path6012"
       xlink:href="#path6012"
       x="0"
       y="0"
       width="100%"
       height="100%"
       transform="matrix(0.64,0,0,0.64,41.578442,248.97482)" />
    <use
       id="use6070"
       inkscape:spray-origin="#path6012"
       xlink:href="#path6012"
       x="0"
       y="0"
       width="100%"
       height="100%"
       transform="matrix(0.64,0,0,0.64,-9.7856528,236.58576)" />
    <use
       id="use6072"
       inkscape:spray-origin="#path6012"
       xlink:href="#path6012"
       x="0"
       y="0"
       width="100%"
       height="100%"
       transform="matrix(0.64,0,0,0.64,35.335898,209.91736)" />
    <use
       id="use6074"
       inkscape:spray-origin="#path6012"
       xlink:href="#path6012"
       x="0"
       y="0"
       width="100%"
       height="100%"
       transform="matrix(0.64,0,0,0.64,53.405559,230.94793)" />
    <use
       id="use6076"
       inkscape:spray-origin="#path6012"
       xlink:href="#path6012"
       x="0"
       y="0"
       width="100%"
       height="100%"
       transform="matrix(0.64,0,0,0.64,83.362613,212.33679)" />
    <use
       id="use6078"
       inkscape:spray-origin="#path6012"
       xlink:href="#path6012"
       x="0"
       y="0"
       width="100%"
       height="100%"
       transform="matrix(0.64,0,0,0.64,73.262265,187.16115)" />
    <use
       id="use6080"
       inkscape:spray-origin="#path6012"
       xlink:href="#path6012"
       x="0"
       y="0"
       width="100%"
       height="100%"
       transform="matrix(0.64,0,0,0.64,108.34093,205.93025)" />
    <use
       id="use6082"
       inkscape:spray-origin="#path6012"
       xlink:href="#path6012"
       x="0"
       y="0"
       width="100%"
       height="100%"
       transform="matrix(0.64,0,0,0.64,123.20835,233.77595)" />
    <use
       id="use6084"
       inkscape:spray-origin="#path6012"
       xlink:href="#path6012"
       x="0"
       y="0"
       width="100%"
       height="100%"
       transform="matrix(0.64,0,0,0.64,128.82673,181.70144)" />
    <use
       id="use6086"
       inkscape:spray-origin="#path6012"
       xlink:href="#path6012"
       x="0"
       y="0"
       width="100%"
       height="100%"
       transform="matrix(0.64,0,0,0.64,175.54187,213.88793)" />
    <use
       id="use6088"
       inkscape:spray-origin="#path6012"
       xlink:href="#path6012"
       x="0"
       y="0"
       width="100%"
       height="100%"
       transform="matrix(0.64,0,0,0.64,173.01159,209.83465)" />
    <use
       id="use6090"
       inkscape:spray-origin="#path6012"
       xlink:href="#path6012"
       x="0"
       y="0"
       width="100%"
       height="100%"
       transform="matrix(0.64,0,0,0.64,125.10907,170.12952)" />
    <use
       id="use6092"
       inkscape:spray-origin="#path6012"
       xlink:href="#path6012"
       x="0"
       y="0"
       width="100%"
       height="100%"
       transform="matrix(0.64,0,0,0.64,139.96889,173.40345)" />
    <use
       id="use6094"
       inkscape:spray-origin="#path6012"
       xlink:href="#path6012"
       x="0"
       y="0"
       width="100%"
       height="100%"
       transform="matrix(0.64,0,0,0.64,41.692076,86.486793)" />
    <use
       id="use6096"
       inkscape:spray-origin="#path6012"
       xlink:href="#path6012"
       x="0"
       y="0"
       width="100%"
       height="100%"
       transform="matrix(0.64,0,0,0.64,66.613752,33.038397)" />
    <use
       id="use6098"
       inkscape:spray-origin="#path6012"
       xlink:href="#path6012"
       x="0"
       y="0"
       width="100%"
       height="100%"
       transform="matrix(0.64,0,0,0.64,67.177875,94.613991)" />
    <use
       id="use6100"
       inkscape:spray-origin="#path6012"
       xlink:href="#path6012"
       x="0"
       y="0"
       width="100%"
       height="100%"
       transform="matrix(0.64,0,0,0.64,25.411565,120.06055)" />
    <use
       id="use6102"
       inkscape:spray-origin="#path6012"
       xlink:href="#path6012"
       x="0"
       y="0"
       width="100%"
       height="100%"
       transform="matrix(0.64,0,0,0.64,-37.268264,144.12044)" />
    <use
       id="use6104"
       inkscape:spray-origin="#path6012"
       xlink:href="#path6012"
       x="0"
       y="0"
       width="100%"
       height="100%"
       transform="matrix(0.64,0,0,0.64,16.167144,127.76081)" />
    <use
       id="use6106"
       inkscape:spray-origin="#path6012"
       xlink:href="#path6012"
       x="0"
       y="0"
       width="100%"
       height="100%"
       transform="matrix(0.64,0,0,0.64,4.3572809,128.15013)" />
    <use
       id="use6108"
       inkscape:spray-origin="#path6012"
       xlink:href="#path6012"
       x="0"
       y="0"
       width="100%"
       height="100%"
       transform="matrix(0.64,0,0,0.64,19.190796,191.26922)" />
    <use
       id="use6110"
       inkscape:spray-origin="#path6012"
       xlink:href="#path6012"
       x="0"
       y="0"
       width="100%"
       height="100%"
       transform="matrix(0.64,0,0,0.64,34.286908,184.30584)" />
    <use
       id="use6112"
       inkscape:spray-origin="#path6012"
       xlink:href="#path6012"
       x="0"
       y="0"
       width="100%"
       height="100%"
       transform="matrix(0.64,0,0,0.64,38.561637,200.75619)" />
    <use
       id="use6114"
       inkscape:spray-origin="#path6012"
       xlink:href="#path6012"
       x="0"
       y="0"
       width="100%"
       height="100%"
       transform="matrix(0.64,0,0,0.64,21.523454,235.49503)" />
    <use
       id="use6116"
       inkscape:spray-origin="#path6012"
       xlink:href="#path6012"
       x="0"
       y="0"
       width="100%"
       height="100%"
       transform="matrix(0.64,0,0,0.64,83.600614,175.21281)" />
    <use
       id="use6118"
       inkscape:spray-origin="#path6012"
       xlink:href="#path6012"
       x="0"
       y="0"
       width="100%"
       height="100%"
       transform="matrix(0.64,0,0,0.64,51.585292,188.41988)" />
    <use
       id="use6120"
       inkscape:spray-origin="#path6012"
       xlink:href="#path6012"
       x="0"
       y="0"
       width="100%"
       height="100%"
       transform="matrix(0.64,0,0,0.64,112.87601,185.9428)" />
    <use
       id="use6122"
       inkscape:spray-origin="#path6012"
       xlink:href="#path6012"
       x="0"
       y="0"
       width="100%"
       height="100%"
       transform="matrix(0.64,0,0,0.64,114.17537,204.20588)" />
    <use
       id="use6124"
       inkscape:spray-origin="#path6012"
       xlink:href="#path6012"
       x="0"
       y="0"
       width="100%"
       height="100%"
       transform="matrix(0.64,0,0,0.64,158.81053,178.76955)" />
    <use
       id="use6126"
       inkscape:spray-origin="#path6012"
       xlink:href="#path6012"
       x="0"
       y="0"
       width="100%"
       height="100%"
       transform="matrix(0.64,0,0,0.64,92.361423,150.0294)" />
    <use
       id="use6128"
       inkscape:spray-origin="#path6012"
       xlink:href="#path6012"
       x="0"
       y="0"
       width="100%"
       height="100%"
       transform="matrix(0.64,0,0,0.64,36.125026,131.27143)" />
    <use
       id="use6130"
       inkscape:spray-origin="#path6012"
       xlink:href="#path6012"
       x="0"
       y="0"
       width="100%"
       height="100%"
       transform="matrix(0.64,0,0,0.64,76.417211,80.213591)" />
    <use
       id="use6132"
       inkscape:spray-origin="#path6012"
       xlink:href="#path6012"
       x="0"
       y="0"
       width="100%"
       height="100%"
       transform="matrix(0.64,0,0,0.64,105.41386,150.64508)" />
    <use
       id="use6134"
       inkscape:spray-origin="#path6012"
       xlink:href="#path6012"
       x="0"
       y="0"
       width="100%"
       height="100%"
       transform="matrix(0.64,0,0,0.64,62.87388,145.93593)" />
    <use
       id="use6136"
       inkscape:spray-origin="#path6012"
       xlink:href="#path6012"
       x="0"
       y="0"
       width="100%"
       height="100%"
       transform="matrix(0.64,0,0,0.64,80.676059,189.63032)" />
    <use
       id="use6138"
       inkscape:spray-origin="#path6012"
       xlink:href="#path6012"
       x="0"
       y="0"
       width="100%"
       height="100%"
       transform="matrix(0.64,0,0,0.64,51.980344,133.05055)" />
    <use
       id="use6140"
       inkscape:spray-origin="#path6012"
       xlink:href="#path6012"
       x="0"
       y="0"
       width="100%"
       height="100%"
       transform="matrix(0.64,0,0,0.64,46.82598,183.4537)" />
    <use
       id="use6142"
       inkscape:spray-origin="#path6012"
       xlink:href="#path6012"
       x="0"
       y="0"
       width="100%"
       height="100%"
       transform="matrix(0.64,0,0,0.64,129.71508,133.84494)" />
    <use
       id="use6144"
       inkscape:spray-origin="#path6012"
       xlink:href="#path6012"
       x="0"
       y="0"
       width="100%"
       height="100%"
       transform="matrix(0.64,0,0,0.64,163.97721,88.819822)" />
    <use
       id="use6146"
       inkscape:spray-origin="#path6012"
       xlink:href="#path6012"
       x="0"
       y="0"
       width="100%"
       height="100%"
       transform="matrix(0.64,0,0,0.64,121.56918,101.32008)" />
    <use
       id="use6148"
       inkscape:spray-origin="#path6012"
       xlink:href="#path6012"
       x="0"
       y="0"
       width="100%"
       height="100%"
       transform="matrix(0.64,0,0,0.64,101.06295,74.81673)" />
    <use
       id="use6150"
       inkscape:spray-origin="#path6012"
       xlink:href="#path6012"
       x="0"
       y="0"
       width="100%"
       height="100%"
       transform="matrix(0.64,0,0,0.64,122.9256,85.712069)" />
    <use
       id="use6152"
       inkscape:spray-origin="#path6012"
       xlink:href="#path6012"
       x="0"
       y="0"
       width="100%"
       height="100%"
       transform="matrix(0.64,0,0,0.64,181.65081,140.29936)" />
    <use
       id="use6154"
       inkscape:spray-origin="#path6012"
       xlink:href="#path6012"
       x="0"
       y="0"
       width="100%"
       height="100%"
       transform="matrix(0.64,0,0,0.64,129.39298,178.62219)" />
    <use
       id="use6156"
       inkscape:spray-origin="#path6012"
       xlink:href="#path6012"
       x="0"
       y="0"
       width="100%"
       height="100%"
       transform="matrix(0.64,0,0,0.64,170.11569,212.81363)" />
    <use
       id="use6158"
       inkscape:spray-origin="#path6012"
       xlink:href="#path6012"
       x="0"
       y="0"
       width="100%"
       height="100%"
       transform="matrix(0.64,0,0,0.64,150.17183,228.62964)" />
    <use
       id="use6160"
       inkscape:spray-origin="#path6012"
       xlink:href="#path6012"
       x="0"
       y="0"
       width="100%"
       height="100%"
       transform="matrix(0.64,0,0,0.64,137.19916,252.86209)" />
    <use
       id="use6162"
       inkscape:spray-origin="#path6012"
       xlink:href="#path6012"
       x="0"
       y="0"
       width="100%"
       height="100%"
       transform="matrix(0.64,0,0,0.64,151.71574,200.02141)" />
    <use
       id="use6164"
       inkscape:spray-origin="#path6012"
       xlink:href="#path6012"
       x="0"
       y="0"
       width="100%"
       height="100%"
       transform="matrix(0.64,0,0,0.64,139.25385,217.85922)" />
    <use
       id="use6166"
       inkscape:spray-origin="#path6012"
       xlink:href="#path6012"
       x="0"
       y="0"
       width="100%"
       height="100%"
       transform="matrix(0.64,0,0,0.64,130.19854,191.62376)" />
    <use
       id="use6168"
       inkscape:spray-origin="#path6012"
       xlink:href="#path6012"
       x="0"
       y="0"
       width="100%"
       height="100%"
       transform="matrix(0.64,0,0,0.64,132.28255,198.03396)" />
    <use
       id="use6170"
       inkscape:spray-origin="#path6012"
       xlink:href="#path6012"
       x="0"
       y="0"
       width="100%"
       height="100%"
       transform="matrix(0.64,0,0,0.64,-32.295036,206.77863)" />
    <use
       id="use6172"
       inkscape:spray-origin="#path6012"
       xlink:href="#path6012"
       x="0"
       y="0"
       width="100%"
       height="100%"
       transform="matrix(0.64,0,0,0.64,-20.3918,239.61803)" />
    <use
       id="use6174"
       inkscape:spray-origin="#path6012"
       xlink:href="#path6012"
       x="0"
       y="0"
       width="100%"
       height="100%"
       transform="matrix(0.64,0,0,0.64,-20.255436,258.30157)" />
    <use
       id="use6176"
       inkscape:spray-origin="#path6012"
       xlink:href="#path6012"
       x="0"
       y="0"
       width="100%"
       height="100%"
       transform="matrix(0.64,0,0,0.64,2.5802542,207.02405)" />
    <use
       id="use6178"
       inkscape:spray-origin="#path6012"
       xlink:href="#path6012"
       x="0"
       y="0"
       width="100%"
       height="100%"
       transform="matrix(0.64,0,0,0.64,-14.062924,221.81391)" />
    <use
       id="use6180"
       inkscape:spray-origin="#path6012"
       xlink:href="#path6012"
       x="0"
       y="0"
       width="100%"
       height="100%"
       transform="matrix(0.64,0,0,0.64,0.53546649,215.52912)" />
    <use
       id="use6182"
       inkscape:spray-origin="#path6012"
       xlink:href="#path6012"
       x="0"
       y="0"
       width="100%"
       height="100%"
       transform="matrix(0.64,0,0,0.64,14.978782,217.58297)" />
    <use
       id="use6184"
       inkscape:spray-origin="#path6012"
       xlink:href="#path6012"
       x="0"
       y="0"
       width="100%"
       height="100%"
       transform="matrix(0.64,0,0,0.64,30.008125,183.77618)" />
    <use
       id="use6186"
       inkscape:spray-origin="#path6012"
       xlink:href="#path6012"
       x="0"
       y="0"
       width="100%"
       height="100%"
       transform="matrix(0.64,0,0,0.64,68.010332,197.05573)" />
    <use
       id="use6188"
       inkscape:spray-origin="#path6012"
       xlink:href="#path6012"
       x="0"
       y="0"
       width="100%"
       height="100%"
       transform="matrix(0.64,0,0,0.64,20.474721,178.60993)" />
    <use
       id="use6190"
       inkscape:spray-origin="#path6012"
       xlink:href="#path6012"
       x="0"
       y="0"
       width="100%"
       height="100%"
       transform="matrix(0.64,0,0,0.64,92.156823,185.59494)" />
    <use
       id="use6192"
       inkscape:spray-origin="#path6012"
       xlink:href="#path6012"
       x="0"
       y="0"
       width="100%"
       height="100%"
       transform="matrix(0.64,0,0,0.64,42.468962,102.05611)" />
    <use
       id="use6194"
       inkscape:spray-origin="#path6012"
       xlink:href="#path6012"
       x="0"
       y="0"
       width="100%"
       height="100%"
       transform="matrix(0.64,0,0,0.64,44.134109,104.25162)" />
    <use
       id="use6196"
       inkscape:spray-origin="#path6012"
       xlink:href="#path6012"
       x="0"
       y="0"
       width="100%"
       height="100%"
       transform="matrix(0.64,0,0,0.64,24.162375,74.856109)" />
    <use
       id="use6198"
       inkscape:spray-origin="#path6012"
       xlink:href="#path6012"
       x="0"
       y="0"
       width="100%"
       height="100%"
       transform="matrix(0.64,0,0,0.64,23.569846,114.40315)" />
    <use
       id="use6200"
       inkscape:spray-origin="#path6012"
       xlink:href="#path6012"
       x="0"
       y="0"
       width="100%"
       height="100%"
       transform="matrix(0.64,0,0,0.64,31.200377,49.36104)" />
    <use
       id="use6202"
       inkscape:spray-origin="#path6012"
       xlink:href="#path6012"
       x="0"
       y="0"
       width="100%"
       height="100%"
       transform="matrix(0.64,0,0,0.64,-34.090231,65.093713)" />
    <use
       id="use6204"
       inkscape:spray-origin="#path6012"
       xlink:href="#path6012"
       x="0"
       y="0"
       width="100%"
       height="100%"
       transform="matrix(0.64,0,0,0.64,-1.2940368,73.667741)" />
    <use
       id="use6206"
       inkscape:spray-origin="#path6012"
       xlink:href="#path6012"
       x="0"
       y="0"
       width="100%"
       height="100%"
       transform="matrix(0.64,0,0,0.64,5.7714378,77.817826)" />
    <use
       id="use6208"
       inkscape:spray-origin="#path6012"
       xlink:href="#path6012"
       x="0"
       y="0"
       width="100%"
       height="100%"
       transform="matrix(0.64,0,0,0.64,19.427575,106.73779)" />
    <use
       id="use6210"
       inkscape:spray-origin="#path6012"
       xlink:href="#path6012"
       x="0"
       y="0"
       width="100%"
       height="100%"
       transform="matrix(0.64,0,0,0.64,-48.189878,91.970929)" />
    <use
       id="use6212"
       inkscape:spray-origin="#path6012"
       xlink:href="#path6012"
       x="0"
       y="0"
       width="100%"
       height="100%"
       transform="matrix(0.64,0,0,0.64,29.764834,64.694049)" />
    <use
       id="use6214"
       inkscape:spray-origin="#path6012"
       xlink:href="#path6012"
       x="0"
       y="0"
       width="100%"
       height="100%"
       transform="matrix(0.64,0,0,0.64,-10.965766,104.0048)" />
    <use
       id="use6216"
       inkscape:spray-origin="#path6012"
       xlink:href="#path6012"
       x="0"
       y="0"
       width="100%"
       height="100%"
       transform="matrix(0.64,0,0,0.64,7.930097,78.174572)" />
    <use
       id="use6218"
       inkscape:spray-origin="#path6012"
       xlink:href="#path6012"
       x="0"
       y="0"
       width="100%"
       height="100%"
       transform="matrix(0.64,0,0,0.64,11.418529,81.1884)" />
    <g
       id="g6327"
       transform="matrix(0.64742101,0,0,0.64742101,-129.99535,104.22235)">
      <circle
         style="opacity:1;fill:#ffb000;fill-opacity:1;stroke:none;stroke-width:0.19761905;stroke-linecap:round;stroke-linejoin:round;stroke-miterlimit:4;stroke-dasharray:none;stroke-opacity:0.99607843;filter:url(#filter6228)"
         id="circle6222"
         cx="312.00003"
         cy="295.60001"
         r="22.508474" />
      <circle
         transform="rotate(29.515515,192.00003,751.14137)"
         style="opacity:1;fill:#ff3300;fill-opacity:1;stroke:none;stroke-width:0.19761905;stroke-linecap:round;stroke-linejoin:round;stroke-miterlimit:4;stroke-dasharray:none;stroke-opacity:0.99607843;filter:url(#filter6236)"
         id="circle6230"
         cx="72.000031"
         cy="295.60001"
         r="22.508474" />
      <circle
         transform="matrix(1.1654015,0,0,1.1654015,228.09109,-48.892684)"
         r="22.508474"
         cy="295.60001"
         cx="72.000031"
         id="path6220"
         style="opacity:1;fill:#ff3300;fill-opacity:1;stroke:none;stroke-width:0.19761905;stroke-linecap:round;stroke-linejoin:round;stroke-miterlimit:4;stroke-dasharray:none;stroke-opacity:0.99607843;filter:url(#filter6298)" />
      <circle
         style="opacity:1;fill:#ffe800;fill-opacity:1;stroke:none;stroke-width:0.19761905;stroke-linecap:round;stroke-linejoin:round;stroke-miterlimit:4;stroke-dasharray:none;stroke-opacity:0.99607843;filter:url(#filter6298)"
         id="circle6302"
         cx="72.000031"
         cy="295.60001"
         r="22.508474"
         transform="matrix(1.0087053,0,0,1.0087053,239.37322,-2.5732994)" />
    </g>
  </g>
</svg>
